<svg width="234" height="120" viewBox="0 0 234 120" fill="none" xmlns="http://www.w3.org/2000/svg">
<path d="M6.672 114V80.592H20.64C22.976 80.592 24.992 81.024 26.688 81.888C28.64 82.88 30.192 84.304 31.344 86.16C32.496 87.984 33.072 90 33.072 92.208C33.072 94.416 32.496 96.448 31.344 98.304C30.224 100.16 28.688 101.584 26.736 102.576C25.072 103.44 23.04 103.872 20.64 103.872H15.408V114H6.672ZM60.5393 81.696C62.4593 82.592 63.9633 83.92 65.0513 85.68C66.1713 87.44 66.7313 89.392 66.7313 91.536C66.7313 94.032 65.9633 96.272 64.4273 98.256C62.9233 100.208 60.9873 101.504 58.6193 102.144L67.1153 114H65.0033L56.7953 102.48L55.2593 102.528H43.2113V114H41.4353V80.592H54.1553C55.5633 80.592 56.7633 80.688 57.7553 80.88C58.7793 81.04 59.7073 81.312 60.5393 81.696ZM55.7393 100.752C57.4033 100.752 58.9393 100.336 60.3473 99.504C61.7553 98.672 62.8753 97.552 63.7073 96.144C64.5393 94.736 64.9553 93.2 64.9553 91.536C64.9553 89.68 64.4593 88 63.4673 86.496C62.5073 84.992 61.1633 83.872 59.4353 83.136C58.1873 82.624 56.4273 82.368 54.1553 82.368H43.2113V100.752H55.7393ZM88.8225 79.872C91.3185 79.872 93.6225 80.496 95.7345 81.744C97.8465 82.96 99.5105 84.624 100.727 86.736C101.975 88.848 102.599 91.152 102.599 93.648V100.944C102.599 103.44 101.975 105.744 100.727 107.856C99.5105 109.968 97.8465 111.648 95.7345 112.896C93.6225 114.112 91.3185 114.72 88.8225 114.72C86.3265 114.72 84.0225 114.112 81.9105 112.896C79.7985 111.648 78.1185 109.968 76.8705 107.856C75.6545 105.744 75.0465 103.44 75.0465 100.944V93.648C75.0465 91.152 75.6545 88.848 76.8705 86.736C78.1185 84.624 79.7985 82.96 81.9105 81.744C84.0225 80.496 86.3265 79.872 88.8225 79.872ZM76.8225 100.944C76.8225 103.12 77.3505 105.136 78.4065 106.992C79.4945 108.816 80.9505 110.272 82.7745 111.36C84.6305 112.416 86.6465 112.944 88.8225 112.944C90.9985 112.944 92.9985 112.416 94.8225 111.36C96.6785 110.272 98.1345 108.816 99.1905 106.992C100.279 105.136 100.823 103.12 100.823 100.944V93.648C100.823 91.472 100.279 89.472 99.1905 87.648C98.1345 85.792 96.6785 84.336 94.8225 83.28C92.9985 82.192 90.9985 81.648 88.8225 81.648C86.6465 81.648 84.6305 82.192 82.7745 83.28C80.9505 84.336 79.4945 85.792 78.4065 87.648C77.3505 89.472 76.8225 91.472 76.8225 93.648V100.944ZM115.042 114H113.266V80.592H126.706C128.946 80.592 131.01 81.072 132.898 82.032C134.818 82.992 136.338 84.352 137.458 86.112C138.578 87.872 139.138 89.904 139.138 92.208C139.138 94.416 138.562 96.448 137.41 98.304C136.29 100.16 134.754 101.584 132.802 102.576C131.106 103.44 129.074 103.872 126.706 103.872H115.042V114ZM115.042 102.096H126.706C128.754 102.096 130.434 101.776 131.746 101.136C133.442 100.336 134.802 99.136 135.826 97.536C136.85 95.936 137.362 94.16 137.362 92.208C137.362 90.288 136.85 88.528 135.826 86.928C134.802 85.328 133.426 84.128 131.698 83.328C130.386 82.688 128.722 82.368 126.706 82.368H115.042V102.096ZM158.973 80.592H160.845L174.573 114H172.653L168.141 102.96H151.677L147.117 114H145.245L158.973 80.592ZM152.397 101.232H167.421L159.885 82.896L152.397 101.232ZM202.664 81.696C204.584 82.592 206.088 83.92 207.176 85.68C208.296 87.44 208.856 89.392 208.856 91.536C208.856 94.032 208.088 96.272 206.552 98.256C205.048 100.208 203.112 101.504 200.744 102.144L209.24 114H207.128L198.92 102.48L197.384 102.528H185.336V114H183.56V80.592H196.28C197.688 80.592 198.888 80.688 199.88 80.88C200.904 81.04 201.832 81.312 202.664 81.696ZM197.864 100.752C199.528 100.752 201.064 100.336 202.472 99.504C203.88 98.672 205 97.552 205.832 96.144C206.664 94.736 207.08 93.2 207.08 91.536C207.08 89.68 206.584 88 205.592 86.496C204.632 84.992 203.288 83.872 201.56 83.136C200.312 82.624 198.552 82.368 196.28 82.368H185.336V100.752H197.864Z" fill="#3D6A9E"/>
<path d="M100.031 44.2C100.781 44.1567 101.423 43.9513 101.955 43.5838C102.485 43.2146 102.75 42.77 102.75 42.25C102.75 41.6433 102.469 41.1563 101.906 40.7888C101.344 40.4196 100.625 40.2567 99.75 40.3C97.1875 40.43 94.4687 39.9429 91.5937 38.8388C88.7187 37.7329 86.9062 35.7283 86.1562 32.825C86.0312 32.3483 85.7025 31.9583 85.17 31.655C84.64 31.3517 84.0312 31.2 83.3437 31.2C82.4687 31.2 81.75 31.4271 81.1875 31.8812C80.625 32.3371 80.4375 32.8683 80.625 33.475C81.6875 37.4183 84.1875 40.235 88.125 41.925C92.0625 43.615 96.0312 44.3733 100.031 44.2ZM99 52C90.4375 52 83.2975 49.9633 77.58 45.89C71.86 41.8167 69 36.7467 69 30.68C69 26.3467 71.485 21.6346 76.455 16.5438C81.4225 11.4513 88.9375 5.93667 99 0C109.062 5.93667 116.579 11.4513 121.549 16.5438C126.516 21.6346 129 26.3467 129 30.68C129 36.7467 126.14 41.8167 120.42 45.89C114.702 49.9633 107.562 52 99 52Z" fill="#3D6A9E"/>
</svg>
